# xmcd CD database file
#
# Track frame offsets:
#	150
#	24934
#	50944
#	81690
#	98286
#	118406
#	144372
#	162516
#	179791
#
# Disc length: 2498 seconds
#
# Revision: 0
# Processed by: cddbd v1.4PL0 Copyright (c) Steve Scherf et al.
# Submitted via: CDex 1.40Beta9
#
DISCID=8009c009
DTITLE=Rolf Wikström - 2 kvällar på Fasching
DYEAR=2002
DGENRE=Blues
TTITLE0=Leva som en luffare
TTITLE1=Jag är som en främling
TTITLE2=Vi ska bygga upp en kyrka
TTITLE3=Gud på tunnelbanan
TTITLE4=Kom till mej kvinna
TTITLE5=När allt har blivit sagt
TTITLE6=Du kommer ångra dej
TTITLE7=Hej å hå lilla mamma
TTITLE8=Twista på lilla mamma
EXTD=YEAR: 2002 ID3G: 0
EXTT0=
EXTT1=
EXTT2=
EXTT3=
EXTT4=
EXTT5=
EXTT6=
EXTT7=
EXTT8=
PLAYORDER=
